<mxfile host="app.diagrams.net" modified="2024-01-09T03:15:44.711Z" agent="Mozilla/5.0 (Windows NT 10.0; Win64; x64) AppleWebKit/537.36 (KHTML, like Gecko) Chrome/120.0.0.0 Safari/537.36 Edg/120.0.0.0" version="22.1.17" etag="uLNN5f6JQMnu51eXe1mi" type="github">
  <diagram name="第 1 页" id="QdNByfG9r9kP9R27Ah_4">
    <mxGraphModel>
      <root>
        <mxCell id="0" />
        <mxCell id="1" parent="0" />
      </root>
    </mxGraphModel>
  </diagram>
</mxfile>
